# xmcd CD database file
# Copyright (C) 1995-1998 Ti Kan
#
# Track frame offsets:
#	150
#	20517
#	34945
#	56332
#	78285
#	108207
#
# Disc length: 4440 seconds
#
# Revision: 1
# Processed by: cddbd v1.5PL3 Copyright (c) Steve Scherf et al.
# Submitted via: CDex 1.3.1JRelease
#
DISCID=3d115606
DTITLE=KUMACHI - クマチ
DYEAR=2003
DGENRE=Pop
TTITLE0=優
TTITLE1=声が届くまで
TTITLE2=風に吹かれて
TTITLE3=call out
TTITLE4=keep contact
TTITLE5=a
EXTD=YEAR: 2003/02/09 ID3G:  13
EXTT0=
EXTT1=
EXTT2=
EXTT3=
EXTT4=
EXTT5=
PLAYORDER=
